<svg width="15592" height="4542" xmlns="http://www.w3.org/2000/svg" xmlns:xlink="http://www.w3.org/1999/xlink" xml:space="preserve" overflow="hidden"><defs><clipPath id="clip0"><rect x="0" y="0" width="15592" height="4542"/></clipPath><clipPath id="clip1"><rect x="0" y="0" width="15592" height="4542"/></clipPath><clipPath id="clip2"><rect x="5346" y="1951" width="5862" height="913"/></clipPath><clipPath id="clip3"><rect x="5346" y="1951" width="5862" height="913"/></clipPath></defs><g clip-path="url(#clip0)"><g clip-path="url(#clip1)"><text fill="#FFFFFF" fill-opacity="1" font-family="Hiragino Kaku Gothic ProN W3,Hiragino Kaku Gothic ProN W3_MSFontService,sans-serif" font-style="normal" font-variant="normal" font-weight="300" font-stretch="normal" font-size="303" text-anchor="start" direction="ltr" writing-mode="lr-tb" unicode-bidi="normal" text-decoration="none" transform="matrix(1 0 0 1 5288.8 3239)">会場：国立国語研究所</text><text fill="#FFFFFF" fill-opacity="1" font-family="Hiragino Kaku Gothic ProN W3,Hiragino Kaku Gothic ProN W3_MSFontService,sans-serif" font-style="normal" font-variant="normal" font-weight="300" font-stretch="normal" font-size="303" text-anchor="start" direction="ltr" writing-mode="lr-tb" unicode-bidi="normal" text-decoration="none" transform="matrix(1 0 0 1 8414.64 3239)">&amp; Web</text><text fill="#FFFFFF" fill-opacity="1" font-family="Hiragino Kaku Gothic ProN W3,Hiragino Kaku Gothic ProN W3_MSFontService,sans-serif" font-style="normal" font-variant="normal" font-weight="300" font-stretch="normal" font-size="303" text-anchor="start" direction="ltr" writing-mode="lr-tb" unicode-bidi="normal" text-decoration="none" transform="matrix(1 0 0 1 9433.86 3239)">開催</text><text fill="#FFFFFF" fill-opacity="1" font-family="Hiragino Kaku Gothic ProN W3,Hiragino Kaku Gothic ProN W3_MSFontService,sans-serif" font-style="normal" font-variant="normal" font-weight="300" font-stretch="normal" font-size="303" text-anchor="start" direction="ltr" writing-mode="lr-tb" unicode-bidi="normal" text-decoration="none" transform="matrix(1 0 0 1 10341.4 3239)">参加無料・要事前申込</text><text fill="#FFFFFF" fill-opacity="1" font-family="Hiragino Kaku Gothic ProN W6,Hiragino Kaku Gothic ProN W6_MSFontService,sans-serif" font-style="normal" font-variant="normal" font-weight="600" font-stretch="normal" font-size="779" text-anchor="start" direction="ltr" writing-mode="lr-tb" unicode-bidi="normal" text-decoration="none" transform="matrix(1 0 0 1 4652.58 1845)">次世代の言語理論を考える</text><text fill="#FFFFFF" fill-opacity="1" font-family="Hiragino Kaku Gothic ProN W6,Hiragino Kaku Gothic ProN W6_MSFontService,sans-serif" font-style="normal" font-variant="normal" font-weight="600" font-stretch="normal" font-size="605" text-anchor="start" direction="ltr" writing-mode="lr-tb" unicode-bidi="normal" text-decoration="none" transform="matrix(1 0 0 1 13591.6 4027)">3/20</text><g><g><g><path d="M2167.37 2883.43C2152.85 2883.43 2141.13 2895.21 2141.13 2909.68L2141.13 3661.42 1385.26 3661.42C1370.73 3661.42 1359.02 3673.2 1359.02 3687.67 1359.02 3702.13 1370.79 3713.91 1385.26 3713.91L2167.37 3713.91C2181.9 3713.91 2193.61 3702.13 2193.61 3687.67L2193.61 2909.62C2193.61 2895.09 2181.84 2883.37 2167.37 2883.37Z" fill="#FFFFFF" fill-rule="nonzero" fill-opacity="1" transform="matrix(1.00018 0 0 1 1023 -326.049)"/><path d="M3033.35 3163.67C3011.18 3163.67 2992.05 3176.28 2982.48 3194.69L2347.48 3194.69 2347.48 3075.91 2592.86 3075.91C2607.39 3075.91 2619.1 3064.14 2619.1 3049.67 2619.1 3035.21 2607.33 3023.43 2592.86 3023.43L2347.48 3023.43 2347.48 2930 2516.65 2930C2526.15 2948.41 2545.34 2961.02 2567.52 2961.02 2599.14 2961.02 2624.78 2935.38 2624.78 2903.76 2624.78 2872.14 2599.14 2846.49 2567.52 2846.49 2545.34 2846.49 2526.21 2859.11 2516.65 2877.52L2347.48 2877.52 2347.48 2847.21C2347.48 2786.9 2298.4 2737.82 2238.03 2737.82L2193.67 2737.82 2193.67 2575.89C2212.09 2566.38 2224.7 2547.19 2224.7 2525.02 2224.7 2493.39 2199.05 2467.75 2167.43 2467.75 2135.81 2467.75 2110.17 2493.39 2110.17 2525.02 2110.17 2547.19 2122.78 2566.32 2141.19 2575.89L2141.19 2737.82 2044.05 2737.82 2044.05 2508.52C2044.05 2493.99 2032.28 2482.28 2017.81 2482.28 2003.35 2482.28 1991.57 2494.05 1991.57 2508.52L1991.57 2737.82 1887.74 2737.82 1887.74 2498C1896.88 2332.89 1959.17 2211.37 2083.69 2115.61 2226.97 2005.38 2301.03 1923.84 2330.68 1834.66 2378.68 1930.96 2447.01 1979.44 2508.94 2023.37 2524.6 2034.49 2539.42 2045.01 2553.35 2055.95 2645.41 2128.16 2683.9 2169.82 2683.9 2240.9 2683.9 2311.97 2650.78 2357.94 2612.53 2411.2 2567.76 2473.49 2517.01 2544.02 2517.01 2664.35 2517.01 2678.88 2528.78 2690.6 2543.25 2690.6 2557.71 2690.6 2569.49 2678.82 2569.49 2664.35 2569.49 2561 2613.01 2500.45 2655.09 2441.87 2695.02 2386.27 2736.38 2328.83 2736.38 2240.9 2736.38 2222.55 2734.29 2205.69 2730.35 2189.91 2917.21 2353.46 2960.49 2533.15 2960.49 2664.35 2960.49 2678.88 2972.26 2690.6 2986.73 2690.6 3001.19 2690.6 3012.97 2678.82 3012.97 2664.35 3012.97 2494.77 2947.34 2251.24 2634.59 2053.74 2633.93 2053.32 2633.21 2053.08 2632.49 2052.72 2617.97 2040.23 2602.25 2027.62 2585.63 2014.58 2570.68 2002.87 2555.38 1991.99 2539.18 1980.51 2463.74 1927.01 2385.74 1871.6 2346.46 1728.32 2345.51 1564.65 2225 1477.13 2097.38 1384.48 2075.26 1368.46 2052.42 1351.84 2030.07 1334.75 1884.15 1223.26 1830.89 1127.26 1810.87 939.865 1809.43 926.355 1797.95 915.954 1784.33 916.372 1770.76 916.611 1759.58 927.132 1758.56 940.642 1747.14 1092.83 1693.94 1207.66 1595.91 1291.83 1556.58 1325.6 1487.54 1364.04 1414.43 1404.81 1339.77 1446.41 1255.13 1493.51 1185.19 1545.1 1115.73 1595.49 1061.57 1647.56 1022.83 1701.12 1022.83 1701.12 1022.77 1701.12 1022.71 1701.18 963.297 1760.59 891.924 1838.72 846.912 1931.08 844.94 1932.87 843.146 1934.84 841.771 1937.29L823.958 1968.08C689.581 2200.07 562.675 2419.15 562.675 2660.35 562.675 2674.88 574.451 2686.59 588.917 2686.59 603.383 2686.59 615.159 2674.82 615.159 2660.35 615.159 2474.27 698.069 2297.57 799.988 2115.61 797.716 2180.52 809.253 2248.07 834.778 2319.44 844.461 2346.64 853.786 2371.27 862.036 2393.03 898.141 2488.61 919.899 2546.3 919.899 2660.35 919.899 2674.88 931.675 2686.59 946.141 2686.59 960.607 2686.59 972.383 2674.82 972.383 2660.35 972.383 2536.67 947.994 2472.11 911.112 2374.44 902.564 2351.84 893.777 2328.47 884.213 2301.69 819.833 2121.41 858.569 1985.89 954.091 1858.09 951.461 1874.41 950.086 1890.85 950.086 1907.35 950.086 2016.32 997.25 2109.15 1090.38 2183.39 1131.33 2215.85 1184.23 2243.77 1235.34 2270.79 1277.84 2293.2 1317.95 2314.36 1348.32 2336.48 1348.56 2336.66 1348.79 2336.84 1349.03 2337.02 1468.23 2417.48 1531.29 2539.66 1526.51 2681.03 1526.51 2681.33 1526.51 2681.63 1526.51 2681.93L1526.51 2738 1317.35 2738C1257.04 2738 1207.96 2787.08 1207.96 2847.39L1207.96 2877.7 1053.56 2877.7C1044.05 2859.28 1024.87 2846.67 1002.69 2846.67 971.068 2846.67 945.424 2872.32 945.424 2903.94 945.424 2935.56 971.068 2961.2 1002.69 2961.2 1024.87 2961.2 1043.99 2948.59 1053.56 2930.18L1207.96 2930.18 1207.96 3023.61 977.285 3023.61C962.759 3023.61 951.043 3035.39 951.043 3049.85 951.043 3064.32 962.819 3076.09 977.285 3076.09L1207.96 3076.09 1207.96 3195.35 575.826 3195.35C566.322 3176.94 547.133 3164.32 524.956 3164.32 493.335 3164.32 467.691 3189.97 467.691 3221.59 467.691 3253.21 493.335 3278.86 524.956 3278.86 547.133 3278.86 566.262 3266.24 575.826 3247.83L1234.08 3247.83C1234.08 3247.83 1234.14 3247.83 1234.2 3247.83 1234.26 3247.83 1234.26 3247.83 1234.32 3247.83L1369.3 3247.83C1484.97 3247.83 1579.05 3153.74 1579.05 3038.08L1579.05 2790.36 1680.85 2790.36 1680.85 3044.41C1680.85 3206.88 1548.69 3339.05 1386.21 3339.05L681.81 3339.05C667.284 3339.05 655.568 3350.83 655.568 3365.29 655.568 3379.76 667.344 3391.53 681.81 3391.53L1386.21 3391.53C1577.62 3391.53 1733.34 3235.82 1733.34 3044.41L1733.34 2790.36 1835.02 2790.36 1835.02 3070.89C1835.02 3306.47 1643.37 3498.12 1407.79 3498.12L984.099 3498.12C969.573 3498.12 957.857 3509.89 957.857 3524.36 957.857 3538.82 969.633 3550.6 984.099 3550.6L1207.9 3550.6 1207.9 3661.54 1053.5 3661.54C1043.99 3643.13 1024.81 3630.52 1002.63 3630.52 971.008 3630.52 945.364 3656.16 945.364 3687.79 945.364 3719.41 971.008 3745.05 1002.63 3745.05 1024.81 3745.05 1043.94 3732.44 1053.5 3714.03L1207.9 3714.03 1207.9 3751.81C1207.9 3812.18 1256.98 3861.26 1317.29 3861.26L1347.9 3861.26 1347.9 4004.42C1329.49 4013.93 1316.87 4033.11 1316.87 4055.29 1316.87 4086.91 1342.52 4112.56 1374.14 4112.56 1405.76 4112.56 1431.41 4086.91 1431.41 4055.29 1431.41 4033.11 1418.79 4013.99 1400.38 4004.42L1400.38 3861.26 1500.03 3861.26 1500.03 4090.08C1500.03 4104.61 1511.81 4116.32 1526.27 4116.32 1540.74 4116.32 1552.51 4104.55 1552.51 4090.08L1552.51 3861.26 1668.3 3861.26 1668.3 4090.08C1668.3 4104.61 1680.08 4116.32 1694.54 4116.32 1709.01 4116.32 1720.78 4104.55 1720.78 4090.08L1720.78 3861.26 1833.4 3861.26 1833.4 4090.08C1833.4 4104.61 1845.18 4116.32 1859.64 4116.32 1874.11 4116.32 1885.89 4104.55 1885.89 4090.08L1885.89 3861.26 2001.67 3861.26 2001.67 4090.08C2001.67 4104.61 2013.45 4116.32 2027.91 4116.32 2042.38 4116.32 2054.16 4104.55 2054.16 4090.08L2054.16 3861.26 2140.83 3861.26 2140.83 4004.42C2122.42 4013.93 2109.81 4033.11 2109.81 4055.29 2109.81 4086.91 2135.45 4112.56 2167.07 4112.56 2198.7 4112.56 2224.34 4086.91 2224.34 4055.29 2224.34 4033.11 2211.73 4013.99 2193.32 4004.42L2193.32 3861.26 2237.67 3861.26C2298.04 3861.26 2347.12 3812.18 2347.12 3751.81L2347.12 3714.03 2497.34 3714.03C2506.84 3732.44 2526.03 3745.05 2548.21 3745.05 2579.83 3745.05 2605.47 3719.41 2605.47 3687.79 2605.47 3656.16 2579.83 3630.52 2548.21 3630.52 2526.03 3630.52 2506.9 3643.13 2497.34 3661.54L2347.12 3661.54 2347.12 3550.6 2580.13 3550.6C2594.65 3550.6 2606.37 3538.82 2606.37 3524.36 2606.37 3509.89 2594.59 3498.12 2580.13 3498.12L2347.12 3498.12 2347.12 3391.89 2875.07 3391.89C2889.59 3391.89 2901.31 3380.12 2901.31 3365.65 2901.31 3351.19 2889.53 3339.41 2875.07 3339.41L2347.12 3339.41 2347.12 3247.41 2982.13 3247.41C2991.63 3265.82 3010.82 3278.44 3033 3278.44 3064.62 3278.44 3090.26 3252.79 3090.26 3221.17 3090.26 3189.55 3064.62 3163.91 3033 3163.91ZM1526.51 3037.96C1526.51 3124.63 1455.97 3195.17 1369.3 3195.17L1260.51 3195.17 1260.51 2847.15C1260.51 2815.77 1286.03 2790.24 1317.41 2790.24L1526.57 2790.24 1526.57 3037.96ZM1579.05 2737.7 1579.05 2682.11C1584.31 2522.33 1513.18 2384.36 1378.8 2293.5 1345.45 2269.35 1303.84 2247.35 1259.85 2224.16 1210.83 2198.28 1160.08 2171.5 1123.02 2142.09 1043.1 2078.37 1002.57 1999.34 1002.57 1907.17 1002.57 1848.88 1021.82 1792.4 1060.91 1736.8 1062.11 1735.43 1063.12 1733.99 1063.96 1732.5 1099.23 1683.66 1149.74 1635.48 1216.09 1587.36 1257.64 1556.76 1305.04 1527.47 1352.5 1499.97 1342.22 1526.09 1337.08 1553.83 1337.44 1582.88 1331.58 1674.58 1400.26 1754.26 1466.73 1831.37 1497.46 1867 1526.45 1900.65 1546.12 1933.29L1546.95 1934.6C1613.19 2031.02 1680.85 2172.45 1680.85 2490.11L1680.85 2737.76 1579.05 2737.76ZM1733.4 2737.7 1733.4 2490.05C1733.4 2226.37 1690.72 2051.47 1590.71 1905.43 1568.77 1869.21 1538.53 1834.12 1506.54 1797 1446.77 1727.66 1384.96 1655.93 1389.98 1585.33L1389.98 1584.19C1389.98 1584.19 1390.04 1583.06 1390.04 1583.06 1389.08 1526.75 1415.51 1475.88 1466.32 1435.83 1533.8 1398.05 1591.67 1364.52 1630.1 1331.52 1705.12 1267.14 1756.59 1187.16 1785.46 1089.31 1819.53 1206.17 1882.84 1288.12 1998.21 1376.29 2021.1 1393.75 2044.17 1410.54 2066.53 1426.8 2188.59 1515.39 2293.98 1591.97 2293.98 1730.11 2293.98 1832.09 2255.36 1917.09 2051.59 2073.82 1913.86 2179.75 1845.06 2313.83 1835.14 2495.73 1835.14 2496.2 1835.14 2496.68 1835.14 2497.16L1835.14 2737.76 1733.46 2737.76ZM2294.94 3751.75C2294.94 3783.13 2269.41 3808.71 2237.97 3808.71L1317.35 3808.71C1285.97 3808.71 1260.45 3783.19 1260.45 3751.75L1260.45 3550.48 1407.79 3550.48C1672.3 3550.48 1887.56 3335.28 1887.56 3070.71L1887.56 2790.18 1991.39 2790.18 1991.39 3497.64C1972.98 3507.14 1960.37 3526.33 1960.37 3548.51 1960.37 3580.13 1986.01 3605.77 2017.63 3605.77 2049.25 3605.77 2074.9 3580.13 2074.9 3548.51 2074.9 3526.33 2062.29 3507.2 2043.88 3497.64L2043.88 2790.18 2237.91 2790.18C2269.29 2790.18 2294.88 2815.71 2294.88 2847.09L2294.88 3751.75Z" fill="#FFFFFF" fill-rule="nonzero" fill-opacity="1" transform="matrix(1.00018 0 0 1 1023 -326.049)"/></g></g></g><text fill="#FFFFFF" fill-opacity="1" font-family="Hiragino Kaku Gothic ProN W3,Hiragino Kaku Gothic ProN W3_MSFontService,sans-serif" font-style="normal" font-variant="normal" font-weight="700" font-stretch="normal" font-size="358" text-anchor="start" direction="ltr" writing-mode="lr-tb" unicode-bidi="normal" text-decoration="none" transform="matrix(1 0 0 1 11049.2 2557)">第２回研究会</text><g clip-path="url(#clip2)"><g clip-path="url(#clip3)"><g><path d="M18660.4 1935.76 18632.2 1935.76 18632.2 1990.92 18583.8 1990.92 18583.8 2019.19 18632.2 2019.19 18632.2 2175.57C18632.2 2192.61 18637 2209.25 18646.1 2223.71 18662.7 2250.12 18691.3 2265.87 18722.5 2265.87L18846.4 2265.87 18846.4 2237.6 18722.5 2237.6C18701 2237.6 18681.4 2226.78 18670 2208.6 18663.8 2198.67 18660.4 2187.28 18660.4 2175.49L18660.4 2019.11 18852 2019.11 18845.5 2072.26 18803.9 2072.26 18803.9 2100.53 18870.4 2100.53 18883.9 1990.84 18660.4 1990.84 18660.4 1935.68Z" fill="#FFFFFF" fill-rule="nonzero" fill-opacity="1" transform="matrix(1.00058 0 0 1 -9199.94 320.581)"/><path d="M18969.2 1982.2 19114.6 1982.2 19114.6 2010.47 18969.2 2010.47Z" fill="#FFFFFF" fill-rule="nonzero" fill-opacity="1" transform="matrix(1.00058 0 0 1 -9199.94 320.581)"/><path d="M19225.4 2155.54C19225.4 2171.61 19219.3 2186.87 19208.1 2198.42L19190.2 2216.84C19178.9 2228.55 19163.1 2235.34 19146.8 2235.58L18983.2 2237.68 18983.5 2265.95 19147.2 2263.85C19170.9 2263.53 19194 2253.59 19210.5 2236.55L19228.3 2218.13C19244.7 2201.25 19253.7 2179.04 19253.7 2155.62L19253.7 2003.36 19225.4 2003.36 19225.4 2155.62Z" fill="#FFFFFF" fill-rule="nonzero" fill-opacity="1" transform="matrix(1.00058 0 0 1 -9199.94 320.581)"/><path d="M19720.9 2072.91 19965.3 2072.91 19965.3 2101.18 19720.9 2101.18Z" fill="#FFFFFF" fill-rule="nonzero" fill-opacity="1" transform="matrix(1.00058 0 0 1 -9199.94 320.581)"/><path d="M17633.8 1914.19 17605.6 1914.19 17605.6 1951.75 17529.3 1951.75 17529.3 1914.19 17501.1 1914.19 17501.1 1951.75 17424.8 1951.75 17424.8 1914.19 17396.5 1914.19 17396.5 1951.75 17346.2 1951.75 17346.2 2028 17374.5 2028 17374.5 1980.02 17662.1 1980.02 17662.1 2028 17690.5 2028 17690.5 1951.75 17633.8 1951.75 17633.8 1914.19Z" fill="#FFFFFF" fill-rule="nonzero" fill-opacity="1" transform="matrix(1.00058 0 0 1 -9199.94 320.581)"/><path d="M17535 2117.73 17604.3 2069.84 17604.3 2017.9 17410.8 2017.9 17410.8 2046.17 17576 2046.17 17576 2054.98 17506.7 2102.87 17506.7 2131.95 17364.6 2131.95 17364.6 2160.22 17506.7 2160.22 17506.7 2220.56C17506.7 2226.78 17504.3 2232.67 17499.8 2237.11 17495.4 2241.56 17489.6 2243.98 17483.3 2243.98L17441.7 2243.98 17441.7 2272.25 17483.3 2272.25C17497.1 2272.25 17510 2266.92 17519.8 2257.15 17529.6 2247.37 17534.9 2234.45 17534.9 2220.64L17534.9 2160.3 17669.9 2160.3 17669.9 2132.03 17534.9 2132.03 17534.9 2117.82Z" fill="#FFFFFF" fill-rule="nonzero" fill-opacity="1" transform="matrix(1.00058 0 0 1 -9199.94 320.581)"/><path d="M16193.8 2267 16440.8 2267 16440.8 2127.35 16193.8 2127.35 16193.8 2267ZM16222 2155.54 16412.4 2155.54 16412.4 2238.65 16222 2238.65 16222 2155.54Z" fill="#FFFFFF" fill-rule="nonzero" fill-opacity="1" transform="matrix(1.00058 0 0 1 -9199.94 320.581)"/><path d="M16331.4 1914.19 16303.1 1914.19 16303.1 1959.83 16149.1 1959.83 16149.1 1988.1 16485.4 1988.1 16485.4 1959.83 16331.4 1959.83 16331.4 1914.19Z" fill="#FFFFFF" fill-rule="nonzero" fill-opacity="1" transform="matrix(1.00058 0 0 1 -9199.94 320.581)"/><path d="M16195.6 2075.98 16438.9 2075.98 16438.9 2104.25 16195.6 2104.25Z" fill="#FFFFFF" fill-rule="nonzero" fill-opacity="1" transform="matrix(1.00058 0 0 1 -9199.94 320.581)"/><path d="M16195.6 2017.9 16438.9 2017.9 16438.9 2046.17 16195.6 2046.17Z" fill="#FFFFFF" fill-rule="nonzero" fill-opacity="1" transform="matrix(1.00058 0 0 1 -9199.94 320.581)"/><path d="M16544.9 2267 16670.2 2267 16670.2 2127.35 16544.9 2127.35 16544.9 2267ZM16573.2 2155.54 16641.9 2155.54 16641.9 2238.65 16573.2 2238.65 16573.2 2155.54Z" fill="#FFFFFF" fill-rule="nonzero" fill-opacity="1" transform="matrix(1.00058 0 0 1 -9199.94 320.581)"/><path d="M16711.8 2267 16870.5 2267 16870.5 2127.35 16711.8 2127.35 16711.8 2267ZM16740.1 2155.54 16842.2 2155.54 16842.2 2238.65 16740.1 2238.65 16740.1 2155.54Z" fill="#FFFFFF" fill-rule="nonzero" fill-opacity="1" transform="matrix(1.00058 0 0 1 -9199.94 320.581)"/><path d="M16546.6 2017.9 16671 2017.9 16671 2046.17 16546.6 2046.17Z" fill="#FFFFFF" fill-rule="nonzero" fill-opacity="1" transform="matrix(1.00058 0 0 1 -9199.94 320.581)"/><path d="M16546.6 2074.84 16671 2074.84 16671 2103.11 16546.6 2103.11Z" fill="#FFFFFF" fill-rule="nonzero" fill-opacity="1" transform="matrix(1.00058 0 0 1 -9199.94 320.581)"/><path d="M16621.6 1914.19 16593.3 1914.19 16593.3 1958.62 16531.9 1958.62 16531.9 1986.89 16682.9 1986.89 16682.9 1958.62 16621.6 1958.62 16621.6 1914.19Z" fill="#FFFFFF" fill-rule="nonzero" fill-opacity="1" transform="matrix(1.00058 0 0 1 -9199.94 320.581)"/><path d="M16856.3 1984.46 16768.2 1984.46 16768.2 1955.71 16880.6 1955.71 16880.6 1927.44 16700.5 1927.44 16700.5 1955.71 16740 1955.71 16740 1984.46 16714.8 1984.46 16714.8 2012.73 16740 2012.73 16740 2075.98 16687.8 2075.98 16687.8 2104.25 16893.7 2104.25 16893.7 2075.98 16856.9 2075.98 16856.4 1984.46ZM16768.2 2075.98 16768.2 2012.73 16828.2 2012.73 16828.6 2075.98 16768.2 2075.98Z" fill="#FFFFFF" fill-rule="nonzero" fill-opacity="1" transform="matrix(1.00058 0 0 1 -9199.94 320.581)"/><path d="M19616.2 1936.97 19411 1936.97 19352.2 2096.57 19382.3 2096.57 19430.7 1965.24 19587.9 1965.24 19587.9 2072.91 19484.5 2072.91 19484.5 2101.18 19587.9 2101.18 19587.9 2164.74C19587.9 2171.77 19586 2178.64 19582.3 2184.61L19560.4 2219.91C19553.4 2231.06 19541.5 2237.68 19528.4 2237.68L19383.6 2237.68 19383.6 2265.95 19528.4 2265.95C19551.3 2265.95 19572.3 2254.32 19584.4 2234.77L19606.3 2199.47C19612.7 2189.05 19616.2 2177.02 19616.2 2164.66L19616.2 2101.1 19629.9 2101.1 19629.9 2072.83 19616.2 2072.83 19616.2 1936.89Z" fill="#FFFFFF" fill-rule="nonzero" fill-opacity="1" transform="matrix(1.00058 0 0 1 -9199.94 320.581)"/><path d="M18070.6 1954.01 18108.4 1954.01 18108.4 1925.74 17910.5 1925.74 17910.5 1954.01 17946.3 1954.01 17946.3 2051.42 17902.2 2051.42 17902.2 2079.69 17946.3 2079.69 17946.3 2210.54C17946.3 2212.64 17945.4 2214.66 17943.8 2216.03L17919.2 2236.95 17919.2 2274.11 17962.1 2237.6C17970 2230.81 17974.5 2221.04 17974.5 2210.62L17974.5 2079.77 18042.3 2079.77 18042.3 2271.68 18070.6 2271.68 18070.6 2079.77 18113.6 2079.77 18113.6 2051.5 18070.6 2051.5 18070.6 1954.09ZM18042.3 2051.5 17974.5 2051.5 17974.5 1954.09 18042.3 1954.09 18042.3 2051.5Z" fill="#FFFFFF" fill-rule="nonzero" fill-opacity="1" transform="matrix(1.00058 0 0 1 -9199.94 320.581)"/><path d="M17752.7 1953.93 17789.9 1953.93 17732 2136.72 17761.6 2136.72 17780.8 2076.14 17780.8 2258.68 17882.5 2258.68 17882.5 2055.46 17787.4 2055.46 17819.5 1954.01 17891.8 1954.01 17891.8 1925.74 17752.7 1925.74 17752.7 1954.01ZM17809.1 2083.65 17854.2 2083.65 17854.2 2230.33 17809.1 2230.33 17809.1 2083.65Z" fill="#FFFFFF" fill-rule="nonzero" fill-opacity="1" transform="matrix(1.00058 0 0 1 -9199.94 320.581)"/><path d="M18208.2 1980.02 18485.2 1980.02 18485.2 2019.03 18513.6 2019.03 18513.6 1951.75 18361.4 1951.75 18361.4 1914.19 18333.2 1914.19 18333.2 1951.75 18179.9 1951.75 18179.9 2028 18208.2 2028 18208.2 1980.02Z" fill="#FFFFFF" fill-rule="nonzero" fill-opacity="1" transform="matrix(1.00058 0 0 1 -9199.94 320.581)"/><path d="M18457.7 2235.66C18452.4 2230.33 18449.4 2223.22 18449.4 2215.63L18449.4 2129.12 18340.7 2129.12 18340.7 2065.64 18312.5 2065.64 18312.5 2129.12 18192 2129.12 18192 2157.39 18284.9 2157.39 18169.4 2269.18 18210.1 2269.18 18325.5 2157.39 18421 2157.39 18421 2215.63C18421 2230.73 18426.9 2244.95 18437.6 2255.61 18448.3 2266.27 18462.5 2272.17 18477.6 2272.17L18517.8 2272.17 18517.8 2243.9 18477.6 2243.9C18470 2243.9 18462.9 2240.99 18457.5 2235.66Z" fill="#FFFFFF" fill-rule="nonzero" fill-opacity="1" transform="matrix(1.00058 0 0 1 -9199.94 320.581)"/><path d="M18201.8 2062.41 18201.8 2092.37 18277.3 2066.12C18288.7 2062.16 18296.3 2051.34 18296.3 2039.31L18296.3 2001.26 18268.1 2001.26 18268.1 2039.39C18268.1 2039.39 18201.8 2062.41 18201.8 2062.41Z" fill="#FFFFFF" fill-rule="nonzero" fill-opacity="1" transform="matrix(1.00058 0 0 1 -9199.94 320.581)"/><path d="M18397.2 2001.26 18397.2 2039.06C18397.2 2051.26 18405 2062.16 18416.5 2066.2L18489.4 2091.65 18489.4 2061.68 18425.5 2039.14 18425.5 2001.34 18397.2 2001.34Z" fill="#FFFFFF" fill-rule="nonzero" fill-opacity="1" transform="matrix(1.00058 0 0 1 -9199.94 320.581)"/><path d="M14932.4 1971.7 15018.8 1971.7 15018.8 1999.97 14932.4 1999.97Z" fill="#FFFFFF" fill-rule="nonzero" fill-opacity="1" transform="matrix(1.00058 0 0 1 -9199.94 320.581)"/><path d="M15271.5 2063.78 15292.8 1971.62 15092.2 1971.62 15103.7 1914.19 15074.9 1914.19 15044.6 2066.12 15073.4 2066.12 15086.6 1999.89 15136.1 1999.89 15136.1 2090.92C15136.1 2097.3 15133.9 2103.68 15129.9 2108.69L15030.2 2236.87 15030.2 2282.91 15150.1 2128.72 15292.1 2282.1 15292.1 2240.51 15163.2 2101.26C15163.9 2097.86 15164.3 2094.39 15164.3 2090.84L15164.3 1999.81 15257.2 1999.81 15242.5 2063.7 15271.5 2063.7Z" fill="#FFFFFF" fill-rule="nonzero" fill-opacity="1" transform="matrix(1.00058 0 0 1 -9199.94 320.581)"/><path d="M14955.2 2196 14928.3 2196 14928.3 2224.27 14971.2 2224.27 15029.5 2125.97 14996.6 2125.97 14955.2 2196Z" fill="#FFFFFF" fill-rule="nonzero" fill-opacity="1" transform="matrix(1.00058 0 0 1 -9199.94 320.581)"/><path d="M15302 2292.85 15302.1 2292.76 15301.9 2292.76 15302 2292.85Z" fill="#FFFFFF" fill-rule="nonzero" fill-opacity="1" transform="matrix(1.00058 0 0 1 -9199.94 320.581)"/><path d="M15633.1 1914.19 15604.9 1914.19 15604.9 1984.46 15526.3 1984.46 15526.3 1914.19 15498 1914.19 15498 1984.46 15419.4 1984.46 15419.4 1914.19 15391.2 1914.19 15391.2 1984.46 15335.2 1984.46 15335.2 2012.73 15391.2 2012.73 15391.2 2266.51 15671.9 2266.51 15671.9 2238.24 15419.4 2238.24 15419.4 2012.73 15498 2012.73 15498 2140.27 15633.1 2140.27 15633.1 2012.73 15696.5 2012.73 15696.5 1984.46 15633.1 1984.46 15633.1 1914.19ZM15604.9 2112 15526.3 2112 15526.3 2012.73 15604.9 2012.73 15604.9 2112Z" fill="#FFFFFF" fill-rule="nonzero" fill-opacity="1" transform="matrix(1.00058 0 0 1 -9199.94 320.581)"/><path d="M16051.1 2237.76 16006.8 2195.76C16003.8 2192.93 16002.1 2188.97 16002.1 2184.94L16002.1 2037.61 16093.9 2037.61 16093.9 2009.34 16002.1 2009.34 16002.1 1914.19 15973.8 1914.19 15973.8 2009.34 15845.9 2009.34 15845.9 2037.61 15973.8 2037.61 15973.8 2184.94C15973.8 2196.73 15978.8 2208.2 15987.3 2216.27L16031.7 2258.28C16039.7 2265.87 16050.2 2270.07 16061.3 2270.07L16095.6 2270.07 16095.6 2241.8 16061.3 2241.8C16057.5 2241.8 16053.9 2240.34 16051.1 2237.76Z" fill="#FFFFFF" fill-rule="nonzero" fill-opacity="1" transform="matrix(1.00058 0 0 1 -9199.94 320.581)"/><path d="M16043.3 1914.19 16071.6 1914.19 16071.6 1993.75 16043.3 1993.75Z" fill="#FFFFFF" fill-rule="nonzero" fill-opacity="1" transform="matrix(1.00058 0 0 1 -9199.94 320.581)"/><path d="M15858.3 1915.73 15855.7 1914.19 15826.7 1914.19 15717.1 2109.41 15749.5 2109.41 15792 2033.73 15792 2272.49 15820.3 2272.49 15820.3 2019.68 15799.9 2019.68 15858.3 1915.73Z" fill="#FFFFFF" fill-rule="nonzero" fill-opacity="1" transform="matrix(1.00058 0 0 1 -9199.94 320.581)"/><path d="M17126.9 1970.81 17202.6 1970.81 17202.6 1999.08 17126.9 1999.08Z" fill="#FFFFFF" fill-rule="nonzero" fill-opacity="1" transform="matrix(1.00058 0 0 1 -9199.94 320.581)"/><path d="M17126.9 2082.44 17202.6 2082.44 17202.6 2110.71 17126.9 2110.71Z" fill="#FFFFFF" fill-rule="nonzero" fill-opacity="1" transform="matrix(1.00058 0 0 1 -9199.94 320.581)"/><path d="M17260.7 1917.91 17232.4 1917.91 17232.4 2177.18 17097 2203.84 17097 2232.67 17232.4 2206.02 17232.4 2272.9 17260.7 2272.9 17260.7 2200.44 17302.3 2192.21 17302.3 2163.45 17260.7 2171.61 17260.7 1917.91Z" fill="#FFFFFF" fill-rule="nonzero" fill-opacity="1" transform="matrix(1.00058 0 0 1 -9199.94 320.581)"/><path d="M17054.5 2051.26 17096.4 2051.26 17096.4 2022.99 17048.2 2022.99 17048.2 1962.98 17096.4 1955.14 17096.4 1926.47 16956.9 1949.33 16956.9 1977.92 17019.9 1967.66 17019.9 2022.99 16956.9 2022.99 16956.9 2051.26 17012.5 2051.26 16947.2 2189.7 16978.5 2189.7 17019.9 2101.82 17019.9 2272.9 17048.2 2272.9 17048.2 2102.55 17063.5 2128.56 17100.3 2128.56 17054.5 2051.26Z" fill="#FFFFFF" fill-rule="nonzero" fill-opacity="1" transform="matrix(1.00058 0 0 1 -9199.94 320.581)"/><path d="M135.211 270.421C60.4975 270.421 0 209.924 0 135.211 0 60.4975 60.4975 0 135.211 0 209.924 0 270.421 60.4975 270.421 135.211 270.421 209.924 209.358 270.421 135.211 270.421ZM9.04635 135.211C9.04635 204.997 65.4245 261.375 135.211 261.375 204.997 261.375 261.375 204.997 261.375 135.211 261.375 65.4245 204.997 9.04635 135.211 9.04635 65.4245 9.04635 9.04635 65.9899 9.04635 135.211ZM128.83 77.944 128.507 77.944 103.468 91.352 99.6714 76.2478 129.88 60.5782 147.892 60.5782 147.892 210.005 128.668 210.005 128.668 77.944Z" fill="#FFFFFF" fill-rule="nonzero" fill-opacity="1" transform="matrix(1.00058 0 0 1 -9199.94 320.581)"/><path d="M135.211 6300.94C60.4975 6300.94 0 6240.45 0 6165.73 0 6091.02 60.4975 6030.52 135.211 6030.52 209.924 6030.52 270.421 6091.02 270.421 6165.73 270.421 6240.45 209.358 6300.94 135.211 6300.94ZM9.04635 6165.73C9.04635 6235.52 65.4245 6291.9 135.211 6291.9 204.997 6291.9 261.375 6235.52 261.375 6165.73 261.375 6095.95 204.997 6039.57 135.211 6039.57 65.4245 6039.57 9.04635 6096.51 9.04635 6165.73ZM173.254 6106.77C171.477 6106.45 169.781 6106.45 168.004 6106.45 163.965 6106.45 159.603 6106.77 154.353 6107.58 133.999 6109.6 108.96 6120.66 101.125 6159.92L102.014 6159.59C112.191 6147.4 126.407 6142.47 141.834 6142.47 172.042 6142.47 188.923 6164.84 188.923 6188.11 188.923 6215.17 167.681 6241.33 133.676 6241.33 104.275 6241.33 81.0133 6220.98 81.0133 6178.25 81.0133 6129.71 110.091 6095.95 151.042 6091.59 160.088 6090.45 167.6 6089.81 173.173 6090.13L173.173 6106.69ZM169.781 6188.75C169.458 6172.44 157.261 6156.44 136.907 6156.44 119.137 6156.44 99.9945 6167.75 99.9945 6182.94 99.9945 6198.12 106.133 6227.12 136.018 6227.12 157.827 6227.12 169.781 6207.09 169.781 6188.75Z" fill="#FFFFFF" fill-rule="nonzero" fill-opacity="1" transform="matrix(1.00058 0 0 1 -9199.94 320.581)"/><path d="M135.211 8483.3C60.4975 8483.3 0 8422.8 0 8348.08 0 8273.37 60.4975 8212.87 135.211 8212.87 209.924 8212.87 270.421 8273.37 270.421 8348.08 270.421 8422.8 209.358 8483.3 135.211 8483.3ZM9.04635 8348.08C9.04635 8417.87 65.4245 8474.25 135.211 8474.25 204.997 8474.25 261.375 8417.87 261.375 8348.08 261.375 8278.3 204.997 8221.92 135.211 8221.92 65.4245 8221.92 9.04635 8278.86 9.04635 8348.08ZM185.773 8274.83 185.773 8289.04 114.291 8422.8 93.9367 8422.8 165.742 8291.71 165.742 8291.14 86.3442 8291.14 86.3442 8274.83 185.773 8274.83Z" fill="#FFFFFF" fill-rule="nonzero" fill-opacity="1" transform="matrix(1.00058 0 0 1 -9199.94 320.581)"/><path d="M7301.53 270.421C7226.82 270.421 7166.32 209.924 7166.32 135.211 7166.32 60.4975 7226.82 0 7301.53 0 7376.25 0 7436.75 60.4975 7436.75 135.211 7436.75 209.924 7375.68 270.421 7301.53 270.421ZM7175.37 135.211C7175.37 204.997 7231.75 261.375 7301.53 261.375 7371.32 261.375 7427.7 204.997 7427.7 135.211 7427.7 65.4245 7371.32 9.04635 7301.53 9.04635 7231.75 9.04635 7175.37 66.0707 7175.37 135.211ZM7250.65 208.47 7250.65 196.273 7266.96 181.735C7314.94 139.572 7328.59 125.357 7328.92 105.81 7328.92 92.1597 7321.32 75.8439 7295.8 75.8439 7281.83 75.8439 7269.07 82.7903 7260.58 89.4942L7254.45 75.8439C7266.96 65.3437 7282.96 59.5282 7299.84 59.5282 7336.51 59.5282 7348.38 85.1326 7348.38 102.256 7348.38 130.768 7328.35 148.78 7288.45 183.108L7277.95 191.508 7277.95 192.073 7352.34 192.073 7352.34 208.389 7250.57 208.389Z" fill="#FFFFFF" fill-rule="nonzero" fill-opacity="1" transform="matrix(1.00058 0 0 1 -9199.94 320.581)"/><path d="M14467.9 270.421C14393.2 270.421 14332.7 209.924 14332.7 135.211 14332.7 60.4975 14393.2 0 14467.9 0 14542.7 0 14603.2 60.4975 14603.2 135.211 14603.2 209.924 14542.1 270.421 14467.9 270.421ZM14341.7 135.211C14341.7 204.997 14398.1 261.375 14467.9 261.375 14537.6 261.375 14594 204.997 14594 135.211 14594 65.4245 14537.6 9.04635 14467.9 9.04635 14398.1 9.04635 14341.7 66.0707 14341.7 135.211ZM14423.4 184.642C14429.8 188.681 14444.7 194.82 14459.8 194.82 14490.9 194.82 14497 175.354 14497 166.873 14497 143.045 14472 137.23 14453.4 137.23L14441.2 137.23 14441.2 122.126 14454 122.126C14471.4 122.126 14490.9 115.179 14490.9 97.9752 14490.9 87.798 14484.2 75.8439 14462.1 75.8439 14449.4 75.8439 14436.5 80.771 14429.2 86.0211L14424 71.8054C14432.4 65.6668 14449 59.609 14465.6 59.609 14498.7 59.609 14511 78.1863 14511 94.8251 14511 110.252 14500.8 122.772 14482.2 128.83L14482.2 129.395C14502.9 133.434 14517.5 148.296 14517.5 166.873 14517.5 188.116 14499.4 210.812 14459.6 210.812 14440.7 210.812 14425.3 204.674 14418.3 199.747L14423.6 184.642Z" fill="#FFFFFF" fill-rule="nonzero" fill-opacity="1" transform="matrix(1.00058 0 0 1 -9199.94 320.581)"/><path d="M21634.3 270.421C21559.6 270.421 21499.1 209.924 21499.1 135.211 21499.1 60.4975 21559.6 0 21634.3 0 21709 0 21769.5 60.4975 21769.5 135.211 21769.5 209.924 21708.4 270.421 21634.3 270.421ZM21508.1 135.211C21508.1 204.997 21564.5 261.375 21634.3 261.375 21704.1 261.375 21760.4 204.997 21760.4 135.211 21760.4 65.4245 21704.1 9.04635 21634.3 9.04635 21564.5 9.04635 21508.1 66.0707 21508.1 135.211ZM21646.2 209.924 21646.2 170.669 21568.9 170.669 21568.9 157.584 21645.7 60.4975 21665.1 60.4975 21665.1 155.242 21687.5 155.242 21687.5 170.669 21665.1 170.669 21665.1 209.924 21646.2 209.924ZM21646.2 155.242 21646.2 97.9752C21646.2 92.7251 21646.5 84.8903 21646.8 79.6402L21646.2 79.3171C21642.7 85.4557 21638.9 91.5135 21635.5 96.7636L21587.2 154.596 21587.2 155.161 21646.2 155.161Z" fill="#FFFFFF" fill-rule="nonzero" fill-opacity="1" transform="matrix(1.00058 0 0 1 -9199.94 320.581)"/><path d="M28800.6 270.421C28725.9 270.421 28665.4 209.924 28665.4 135.211 28665.4 60.4975 28725.9 0 28800.6 0 28875.3 0 28935.8 60.4975 28935.8 135.211 28935.8 209.924 28874.7 270.421 28800.6 270.421ZM28674.4 135.211C28674.4 204.997 28730.8 261.375 28800.6 261.375 28870.4 261.375 28926.8 204.997 28926.8 135.211 28926.8 65.4245 28870.4 9.04635 28800.6 9.04635 28730.8 9.04635 28674.4 66.0707 28674.4 135.211ZM28846.3 78.1863 28785.6 78.1863 28780.1 115.987C28784.1 115.099 28788.8 114.533 28794.6 114.533 28823.7 114.533 28850.2 130.203 28850.2 160.734 28850.2 189.489 28826 210.731 28792.9 210.731 28774.3 210.731 28759.8 205.239 28752.8 200.877L28757.7 185.773C28764.6 189.812 28777.5 194.82 28792.9 194.82 28813.8 194.82 28830.2 180.604 28830.2 163.723 28830.2 144.257 28818 129.961 28785.6 129.961 28776.4 129.961 28768.2 131.091 28762.1 131.98L28770.8 61.9513 28846.4 61.9513 28846.4 78.2671Z" fill="#FFFFFF" fill-rule="nonzero" fill-opacity="1" transform="matrix(1.00058 0 0 1 -9199.94 320.581)"/><path d="M7301.53 6300.94C7226.82 6300.94 7166.32 6240.45 7166.32 6165.73 7166.32 6091.02 7226.82 6030.52 7301.53 6030.52 7376.25 6030.52 7436.75 6091.02 7436.75 6165.73 7436.75 6240.45 7375.68 6300.94 7301.53 6300.94ZM7175.37 6165.73C7175.37 6235.52 7231.75 6291.9 7301.53 6291.9 7371.32 6291.9 7427.7 6235.52 7427.7 6165.73 7427.7 6095.95 7371.32 6039.57 7301.53 6039.57 7231.75 6039.57 7175.37 6096.51 7175.37 6165.73ZM7278.6 6161.69C7259.37 6154.43 7252.99 6141.91 7252.99 6129.71 7252.99 6106.77 7274.23 6090.13 7302.99 6090.13 7331.74 6090.13 7350.08 6105.8 7350.08 6126.48 7350.08 6137.22 7345.15 6151.76 7323.34 6160.16L7323.34 6161.05C7345.15 6167.43 7355.65 6181.08 7355.65 6197.72 7355.65 6225.91 7329.8 6241.33 7301.29 6241.33 7272.78 6241.33 7247.18 6226.47 7247.18 6200.63 7247.18 6183.75 7257.35 6170.42 7278.6 6162.5L7278.6 6161.61ZM7266.4 6199.5C7266.4 6213.71 7279.16 6227.69 7301.62 6227.69 7325.44 6227.69 7336.83 6213.15 7336.83 6200.38 7336.83 6181.16 7322.29 6172.19 7297.25 6167.83 7277.79 6172.19 7266.4 6182.94 7266.4 6198.04L7266.4 6199.5ZM7271.57 6129.14C7271.57 6143.36 7283.52 6151.84 7305.33 6155.88 7320.44 6152.41 7332.07 6143.36 7332.07 6128.26 7332.07 6118.08 7324.8 6103.86 7302.67 6103.86 7281.99 6103.86 7271.57 6115.49 7271.57 6129.14Z" fill="#FFFFFF" fill-rule="nonzero" fill-opacity="1" transform="matrix(1.00058 0 0 1 -9199.94 320.581)"/><path d="M7301.53 8483.3C7226.82 8483.3 7166.32 8422.8 7166.32 8348.08 7166.32 8273.37 7226.82 8212.87 7301.53 8212.87 7376.25 8212.87 7436.75 8273.37 7436.75 8348.08 7436.75 8422.8 7375.68 8483.3 7301.53 8483.3ZM7175.37 8348.08C7175.37 8417.87 7231.75 8474.25 7301.53 8474.25 7371.32 8474.25 7427.7 8417.87 7427.7 8348.08 7427.7 8278.3 7371.32 8221.92 7301.53 8221.92 7231.75 8221.92 7175.37 8278.86 7175.37 8348.08ZM7263.17 8407.13C7264.95 8407.45 7266.64 8407.45 7268.42 8407.45 7272.21 8407.45 7276.58 8407.13 7281.83 8406.32 7301.86 8404.3 7328.67 8392.67 7335.3 8353.98L7334.41 8354.3C7324.23 8366.5 7310.02 8371.43 7294.59 8371.43 7264.38 8371.43 7247.5 8349.05 7247.5 8325.79 7247.5 8298.73 7268.98 8272.56 7302.75 8272.56 7332.15 8272.56 7355.41 8292.92 7355.41 8335.65 7355.41 8383.06 7327.22 8417.95 7285.62 8422.31 7276.33 8423.44 7268.74 8424.09 7263.25 8423.77L7263.25 8407.21ZM7266.64 8325.15C7266.64 8341.46 7279.16 8357.45 7299.19 8357.45 7314.05 8357.45 7336.1 8348.41 7336.1 8330.96 7336.1 8315.29 7329.72 8286.78 7300.32 8286.78 7278.19 8286.78 7266.56 8306.81 7266.56 8325.15Z" fill="#FFFFFF" fill-rule="nonzero" fill-opacity="1" transform="matrix(1.00058 0 0 1 -9199.94 320.581)"/><path d="M14467.9 6301.27C14393.2 6301.27 14332.7 6240.77 14332.7 6166.06 14332.7 6091.34 14393.2 6030.85 14467.9 6030.85 14542.7 6030.85 14603.2 6091.34 14603.2 6166.06 14603.2 6240.77 14542.1 6301.27 14467.9 6301.27ZM14341.7 6166.06C14341.7 6235.84 14398.1 6292.22 14467.9 6292.22 14537.6 6292.22 14594 6235.84 14594 6166.06 14594 6096.27 14537.6 6039.89 14467.9 6039.89 14398.1 6039.89 14341.7 6096.84 14341.7 6166.06ZM14411.2 6112.59 14410.9 6112.59 14388.2 6124.78 14384.7 6111.37 14412.7 6095.95 14428.1 6095.95 14428.1 6236.08 14411.2 6236.08 14411.2 6112.51ZM14462.1 6166.62C14462.1 6121.23 14480.7 6095.38 14506.3 6095.38 14533.9 6095.38 14547.6 6123.57 14547.6 6164.28 14547.6 6213.71 14529.2 6236.65 14504 6236.65 14478.7 6236.65 14462.4 6209.92 14462.1 6166.62ZM14479.2 6168.4C14479.2 6202.97 14489.1 6222.52 14504.5 6222.52 14524.9 6222.52 14530.4 6196.02 14530.4 6165.57 14530.4 6131.81 14523.1 6109.76 14505.1 6109.76 14489.7 6109.76 14479.2 6130.11 14479.2 6164.12L14479.2 6168.48Z" fill="#FFFFFF" fill-rule="nonzero" fill-opacity="1" transform="matrix(1.00058 0 0 1 -9199.94 320.581)"/><path d="M14467.9 8483.3C14393.2 8483.3 14332.7 8422.8 14332.7 8348.08 14332.7 8273.37 14393.2 8212.87 14467.9 8212.87 14542.7 8212.87 14603.2 8273.37 14603.2 8348.08 14603.2 8422.8 14542.1 8483.3 14467.9 8483.3ZM14341.7 8348.08C14341.7 8417.87 14398.1 8474.25 14467.9 8474.25 14537.6 8474.25 14594 8417.87 14594 8348.08 14594 8278.3 14537.6 8221.92 14467.9 8221.92 14398.1 8221.92 14341.7 8278.86 14341.7 8348.08ZM14413.3 8294.61 14412.7 8294.61 14390.6 8306.81 14387.1 8293.4 14414.7 8277.98 14430.4 8277.98 14430.4 8418.11 14413.3 8418.11 14413.3 8294.53ZM14512.4 8294.61 14512 8294.61 14489.3 8306.81 14486.1 8293.4 14513.7 8277.98 14529.4 8277.98 14529.4 8418.11 14512.3 8418.11 14512.3 8294.53Z" fill="#FFFFFF" fill-rule="nonzero" fill-opacity="1" transform="matrix(1.00058 0 0 1 -9199.94 320.581)"/><path d="M21634.3 6300.94C21559.6 6300.94 21499.1 6240.45 21499.1 6165.73 21499.1 6091.02 21559.6 6030.52 21634.3 6030.52 21709 6030.52 21769.5 6091.02 21769.5 6165.73 21769.5 6240.45 21708.4 6300.94 21634.3 6300.94ZM21508.1 6165.73C21508.1 6235.52 21564.5 6291.9 21634.3 6291.9 21704.1 6291.9 21760.4 6235.52 21760.4 6165.73 21760.4 6095.95 21704.1 6039.57 21634.3 6039.57 21564.5 6039.57 21508.1 6096.51 21508.1 6165.73ZM21577.6 6112.26 21577.2 6112.26 21554.5 6124.46 21551.1 6111.05 21579 6095.62 21594.7 6095.62 21594.7 6235.76 21577.6 6235.76 21577.6 6112.18ZM21629.3 6234.39 21629.3 6223.08 21642.7 6208.54C21673.6 6174.54 21689.5 6157.41 21689.5 6136.17 21689.5 6122.52 21682.8 6110 21663.9 6110 21652.6 6110 21643.2 6115.49 21637.7 6120.18L21633.4 6107.09C21641.5 6100.39 21653.7 6095.14 21667.1 6095.14 21697.1 6095.14 21706.7 6116.95 21706.7 6133.83 21706.7 6160.56 21688.1 6180.92 21659.6 6209.67L21650.6 6218.96 21650.6 6219.53 21709.6 6219.53 21709.6 6234.31 21629.3 6234.31Z" fill="#FFFFFF" fill-rule="nonzero" fill-opacity="1" transform="matrix(1.00058 0 0 1 -9199.94 320.581)"/><path d="M21634.3 8483.3C21559.6 8483.3 21499.1 8422.8 21499.1 8348.08 21499.1 8273.37 21559.6 8212.87 21634.3 8212.87 21709 8212.87 21769.5 8273.37 21769.5 8348.08 21769.5 8422.8 21708.4 8483.3 21634.3 8483.3ZM21508.1 8348.08C21508.1 8417.87 21564.5 8474.25 21634.3 8474.25 21704.1 8474.25 21760.4 8417.87 21760.4 8348.08 21760.4 8278.3 21704.1 8221.92 21634.3 8221.92 21564.5 8221.92 21508.1 8278.86 21508.1 8348.08ZM21577.6 8294.61 21577.2 8294.61 21554.5 8306.81 21551.1 8293.4 21579 8277.98 21594.7 8277.98 21594.7 8418.11 21577.6 8418.11 21577.6 8294.53ZM21633.4 8396.63C21639.2 8400.1 21649.9 8403.9 21661.3 8403.9 21684.9 8403.9 21692.2 8388.79 21692.2 8378.29 21692.2 8350.1 21664 8350.1 21648 8350.1L21648 8336.45 21655.3 8336.45C21669.8 8336.45 21687.2 8329.51 21687.2 8312.63 21687.2 8301.32 21680.5 8291.95 21663.7 8291.95 21654.1 8291.95 21645.3 8295.74 21639.3 8299.78L21635.2 8287.02C21641.6 8282.34 21654.5 8277.41 21667.2 8277.41 21693.7 8277.41 21704.7 8293.97 21704.7 8309.96 21704.7 8323.93 21696 8336.45 21680.3 8341.62L21680.3 8341.95C21696.9 8345.98 21709.7 8358.83 21709.7 8377.73 21709.7 8398.08 21694.3 8418.76 21661.4 8418.76 21647.8 8418.76 21635.8 8414.4 21629.7 8410.6L21633.5 8396.63Z" fill="#FFFFFF" fill-rule="nonzero" fill-opacity="1" transform="matrix(1.00058 0 0 1 -9199.94 320.581)"/><path d="M135.211 14371.3C60.4975 14371.3 0 14310.8 0 14236 0 14161.3 60.4975 14100.8 135.211 14100.8 209.924 14100.8 270.421 14161.3 270.421 14236 270.421 14310.8 209.358 14371.3 135.211 14371.3ZM9.04635 14236C9.04635 14305.8 65.4245 14362.2 135.211 14362.2 204.997 14362.2 261.375 14305.8 261.375 14236 261.375 14166.3 204.997 14109.9 135.211 14109.9 65.4245 14109.9 9.04635 14166.8 9.04635 14236ZM78.5094 14182.6 78.1863 14182.6 55.4897 14194.8 52.0165 14181.4 79.9633 14165.9 95.3905 14165.9 95.3905 14306.1 78.5094 14306.1 78.5094 14182.5ZM205.562 14182.3 159.603 14182.3 154.676 14218C157.261 14218 159.927 14217.7 163.965 14217.7 184.319 14217.7 207.581 14230.8 207.581 14259.6 207.581 14288.3 187.793 14306.6 160.169 14306.6 147.407 14306.6 136.018 14302.6 130.203 14298.8L134.241 14285.2C139.734 14288.4 149.103 14291.9 159.523 14291.9 177.535 14291.9 190.054 14279.3 190.054 14261.9 189.731 14242.4 177.292 14230.8 154.273 14230.8 147.892 14230.8 142.318 14231.4 138.28 14231.9L146.438 14167.4 205.481 14167.4 205.481 14182.3Z" fill="#FFFFFF" fill-rule="nonzero" fill-opacity="1" transform="matrix(1.00058 0 0 1 -9199.94 320.581)"/><path d="M7301.53 12188.9C7226.82 12188.9 7166.32 12128.4 7166.32 12053.7 7166.32 11979 7226.82 11918.5 7301.53 11918.5 7376.25 11918.5 7436.75 11979 7436.75 12053.7 7436.75 12128.4 7375.68 12188.9 7301.53 12188.9ZM7175.37 12053.7C7175.37 12123.5 7231.75 12179.9 7301.53 12179.9 7371.32 12179.9 7427.7 12123.5 7427.7 12053.7 7427.7 11983.9 7371.32 11927.5 7301.53 11927.5 7231.75 11927.5 7175.37 11984.6 7175.37 12053.7ZM7244.83 12000.2 7244.51 12000.2 7221.81 12012.4 7218.34 11999 7246.29 11983.6 7261.71 11983.6 7261.71 12123.7 7244.83 12123.7 7244.83 12000.1ZM7370.19 11998.2C7344.34 11998.2 7320.76 12009.8 7314.62 12048.8L7315.19 12048.8C7322.45 12039.2 7332.31 12033.9 7345.15 12033.9 7368.74 12033.9 7381.5 12053.1 7381.5 12075.7 7381.5 12099.9 7366.07 12124.3 7338.77 12124.3 7314.62 12124.3 7296.93 12103.9 7296.93 12067.3 7296.93 12019.7 7323.1 11983 7370.19 11983L7370.19 11998.1ZM7364.94 12075.5C7364.94 12059.5 7355.65 12046.7 7340.55 12046.7 7330.37 12046.7 7313.81 12053.5 7313.81 12070 7313.81 12094.2 7322.54 12111.6 7339.98 12111.6 7357.43 12111.6 7365.02 12093.8 7365.02 12075.6Z" fill="#FFFFFF" fill-rule="nonzero" fill-opacity="1" transform="matrix(1.00058 0 0 1 -9199.94 320.581)"/><path d="M7301.53 14371.3C7226.82 14371.3 7166.32 14310.8 7166.32 14236 7166.32 14161.3 7226.82 14100.8 7301.53 14100.8 7376.25 14100.8 7436.75 14161.3 7436.75 14236 7436.75 14310.8 7375.68 14371.3 7301.53 14371.3ZM7175.37 14236C7175.37 14305.8 7231.75 14362.2 7301.53 14362.2 7371.32 14362.2 7427.7 14305.8 7427.7 14236 7427.7 14166.3 7371.32 14109.9 7301.53 14109.9 7231.75 14109.9 7175.37 14166.8 7175.37 14236ZM7244.83 14182.6 7244.51 14182.6 7221.81 14194.8 7218.34 14181.4 7246.29 14165.9 7261.71 14165.9 7261.71 14306.1 7244.83 14306.1 7244.83 14182.5ZM7379.48 14167.5 7379.48 14179.4 7323.34 14306.2 7306.79 14306.2 7362.03 14182.9 7362.03 14182.3 7300.4 14182.3 7300.4 14167.5 7379.48 14167.5Z" fill="#FFFFFF" fill-rule="nonzero" fill-opacity="1" transform="matrix(1.00058 0 0 1 -9199.94 320.581)"/><path d="M14467.9 12188.9C14393.2 12188.9 14332.7 12128.4 14332.7 12053.7 14332.7 11979 14393.2 11918.5 14467.9 11918.5 14542.7 11918.5 14603.2 11979 14603.2 12053.7 14603.2 12128.4 14542.1 12188.9 14467.9 12188.9ZM14341.7 12053.7C14341.7 12123.5 14398.1 12179.9 14467.9 12179.9 14537.6 12179.9 14594 12123.5 14594 12053.7 14594 11983.9 14537.6 11927.5 14467.9 11927.5 14398.1 11927.5 14341.7 11984.6 14341.7 12053.7ZM14411.2 12000.2 14410.9 12000.2 14388.2 12012.4 14384.7 11999 14412.7 11983.6 14428.1 11983.6 14428.1 12123.7 14411.2 12123.7 14411.2 12000.1ZM14487.6 12049.3C14472.9 12042.1 14466.7 12030.1 14466.7 12018.8 14466.7 11997.6 14484.2 11983 14506.3 11983 14528.4 11983 14543.2 11997.9 14543.2 12016.5 14543.2 12026.6 14538.9 12039.4 14521.1 12048.1L14521.1 12049C14538.5 12056 14547.6 12069 14547.6 12084.8 14547.6 12109.2 14526.9 12124.4 14504.5 12124.4 14480.7 12124.4 14462.1 12109.8 14462.1 12087.1 14462.1 12070.3 14472 12057.5 14488 12049.9L14487.6 12049.3ZM14478.4 12085.7C14478.4 12099.9 14488.2 12112.2 14504.5 12112.2 14522.5 12112.2 14531.3 12099.7 14531.3 12086 14531.3 12068.6 14519.3 12059.8 14501.9 12054.6 14486.8 12059.5 14478.3 12070.9 14478.3 12084.5L14478.3 12085.7ZM14483 12017.7C14483 12031.6 14492.3 12039.8 14508.1 12044.2 14519.7 12040.1 14527.9 12030.8 14527.9 12018 14527.9 12007.3 14522.1 11995.3 14506.1 11995.3 14490.1 11995.3 14483.1 12006.9 14483.1 12017.7Z" fill="#FFFFFF" fill-rule="nonzero" fill-opacity="1" transform="matrix(1.00058 0 0 1 -9199.94 320.581)"/><path d="M14467.9 14371.3C14393.2 14371.3 14332.7 14310.8 14332.7 14236 14332.7 14161.3 14393.2 14100.8 14467.9 14100.8 14542.7 14100.8 14603.2 14161.3 14603.2 14236 14603.2 14310.8 14542.1 14371.3 14467.9 14371.3ZM14341.7 14236C14341.7 14305.8 14398.1 14362.2 14467.9 14362.2 14537.6 14362.2 14594 14305.8 14594 14236 14594 14166.3 14537.6 14109.9 14467.9 14109.9 14398.1 14109.9 14341.7 14166.8 14341.7 14236ZM14411.2 14182.6 14410.9 14182.6 14388.2 14194.8 14384.7 14181.4 14412.7 14165.9 14428.1 14165.9 14428.1 14306.1 14411.2 14306.1 14411.2 14182.5ZM14474.9 14291.6C14510.9 14291.6 14526.3 14269.2 14530.7 14241.1L14530.1 14241.1C14522.5 14250.7 14512.7 14255.9 14499.9 14255.9 14476.3 14255.9 14463.6 14236.7 14463.6 14214.1 14463.6 14189.9 14479 14165.5 14506.3 14165.5 14530.5 14165.5 14548.1 14185.9 14548.1 14222.5 14548.1 14271 14520.8 14306.8 14474.9 14306.8L14474.9 14291.7ZM14480.1 14214.2C14480.1 14230.2 14489.4 14243 14504.5 14243 14519.6 14243 14531.3 14232.8 14531.3 14219.7 14531.3 14195.6 14522.5 14178.1 14505.4 14178.1 14488.3 14178.1 14480.1 14195.9 14480.1 14214.2Z" fill="#FFFFFF" fill-rule="nonzero" fill-opacity="1" transform="matrix(1.00058 0 0 1 -9199.94 320.581)"/><path d="M21634.3 12188.9C21559.6 12188.9 21499.1 12128.4 21499.1 12053.7 21499.1 11979 21559.6 11918.5 21634.3 11918.5 21709 11918.5 21769.5 11979 21769.5 12053.7 21769.5 12128.4 21708.4 12188.9 21634.3 12188.9ZM21508.1 12053.7C21508.1 12123.5 21564.5 12179.9 21634.3 12179.9 21704.1 12179.9 21760.4 12123.5 21760.4 12053.7 21760.4 11983.9 21704.1 11927.5 21634.3 11927.5 21564.5 11927.5 21508.1 11984.6 21508.1 12053.7ZM21552.8 12122.4 21552.8 12110.7 21565.4 12095C21588.1 12066.9 21605.2 12045.6 21604.9 12022.7 21604.9 12008.7 21598.8 11998 21583.1 11998 21573 11998 21565.4 12002.9 21560.8 12006.1L21557 11993C21563.3 11988.1 21574.1 11983.2 21586 11983.2 21613.7 11983.2 21622.4 12003.9 21622.4 12021.3 21622.4 12048.9 21603.8 12071.1 21582 12096.3L21573 12107.1 21573 12107.7 21625 12107.7 21625 12122.5 21552.8 12122.5ZM21645.3 12054.3C21645.3 12008.7 21661.9 11983.1 21686 11983.1 21711.6 11983.1 21724.1 12011 21724.1 12052.9 21724.1 12102.3 21707 12124.4 21684.3 12124.4 21656.6 12124.4 21645.3 12090 21645.3 12054.3ZM21685.2 12109.8C21700.3 12109.8 21706.6 12087.7 21706.6 12053.5 21706.6 12019.2 21700.8 11997.6 21685.2 11997.6 21675.9 11997.6 21662.8 12007.8 21662.8 12055.2 21662.8 12089 21670.6 12109.9 21684.9 12109.9L21685.2 12109.9Z" fill="#FFFFFF" fill-rule="nonzero" fill-opacity="1" transform="matrix(1.00058 0 0 1 -9199.94 320.581)"/><path d="M21634.3 14371.3C21559.6 14371.3 21499.1 14310.8 21499.1 14236 21499.1 14161.3 21559.6 14100.8 21634.3 14100.8 21709 14100.8 21769.5 14161.3 21769.5 14236 21769.5 14310.8 21708.4 14371.3 21634.3 14371.3ZM21508.1 14236C21508.1 14305.8 21564.5 14362.2 21634.3 14362.2 21704.1 14362.2 21760.4 14305.8 21760.4 14236 21760.4 14166.3 21704.1 14109.9 21634.3 14109.9 21564.5 14109.9 21508.1 14166.8 21508.1 14236ZM21552.8 14304.7 21552.8 14293.1 21565.4 14277.4C21588.1 14249.2 21605.2 14228 21604.9 14205 21604.9 14191.1 21598.8 14180.3 21583.1 14180.3 21573 14180.3 21565.4 14185.2 21560.8 14188.5L21557 14175.4C21563.3 14170.5 21574.1 14165.5 21586 14165.5 21613.7 14165.5 21622.4 14186.2 21622.4 14203.6 21622.4 14231.2 21603.8 14253.3 21582 14278.6L21573 14289.4 21573 14289.9 21625 14289.9 21625 14304.7 21552.8 14304.7ZM21682.8 14183.1 21682.5 14183.1 21660.1 14195.7 21656.6 14182 21684.6 14166 21700 14166 21700 14306.2 21682.9 14306.2 21682.9 14183.1Z" fill="#FFFFFF" fill-rule="nonzero" fill-opacity="1" transform="matrix(1.00058 0 0 1 -9199.94 320.581)"/><path d="M28800.6 12188.9C28725.9 12188.9 28665.4 12128.4 28665.4 12053.7 28665.4 11979 28725.9 11918.5 28800.6 11918.5 28875.3 11918.5 28935.8 11979 28935.8 12053.7 28935.8 12128.4 28874.7 12188.9 28800.6 12188.9ZM28674.4 12053.7C28674.4 12123.5 28730.8 12179.9 28800.6 12179.9 28870.4 12179.9 28926.8 12123.5 28926.8 12053.7 28926.8 11983.9 28870.4 11927.5 28800.6 11927.5 28730.8 11927.5 28674.4 11984.6 28674.4 12053.7ZM28719.3 12122.4 28719.3 12110.7 28731.8 12095C28754.5 12066.9 28771.3 12045.6 28771.3 12022.7 28771.3 12008.7 28765.2 11998 28749.2 11998 28739.4 11998 28731.8 12002.9 28726.8 12006.1L28723 11993C28729.8 11988.1 28740.2 11983.2 28752.4 11983.2 28780.1 11983.2 28788.5 12003.9 28788.5 12021.3 28788.5 12048.9 28770.1 12071.1 28748.3 12096.3L28739 12107.1 28739 12107.7 28791.1 12107.7 28791.1 12122.5 28719.3 12122.5ZM28814.3 12122.4 28814.3 12110.7 28826.8 12095C28849.5 12066.9 28866.4 12045.6 28866.4 12022.7 28866.4 12008.7 28860.6 11998 28844.6 11998 28834.4 11998 28826.8 12002.9 28822.2 12006.1L28818.4 11993C28824.8 11988.1 28835.6 11983.2 28847.5 11983.2 28875.5 11983.2 28883.5 12003.9 28883.5 12021.3 28883.5 12048.9 28865.2 12071.1 28843.7 12096.3L28834.4 12107.1 28834.4 12107.7 28886.2 12107.7 28886.2 12122.5 28814.4 12122.5Z" fill="#FFFFFF" fill-rule="nonzero" fill-opacity="1" transform="matrix(1.00058 0 0 1 -9199.94 320.581)"/><path d="M28800.6 14371.3C28725.9 14371.3 28665.4 14310.8 28665.4 14236 28665.4 14161.3 28725.9 14100.8 28800.6 14100.8 28875.3 14100.8 28935.8 14161.3 28935.8 14236 28935.8 14310.8 28874.7 14371.3 28800.6 14371.3ZM28674.4 14236C28674.4 14305.8 28730.8 14362.2 28800.6 14362.2 28870.4 14362.2 28926.8 14305.8 28926.8 14236 28926.8 14166.3 28870.4 14109.9 28800.6 14109.9 28730.8 14109.9 28674.4 14166.8 28674.4 14236ZM28719.3 14304.7 28719.3 14293.1 28731.8 14277.4C28754.5 14249.2 28771.3 14228 28771.3 14205 28771.3 14191.1 28765.2 14180.3 28749.2 14180.3 28739.4 14180.3 28731.8 14185.2 28726.8 14188.5L28723 14175.4C28729.8 14170.5 28740.2 14165.5 28752.4 14165.5 28780.1 14165.5 28788.5 14186.2 28788.5 14203.6 28788.5 14231.2 28770.1 14253.3 28748.3 14278.6L28739 14289.4 28739 14289.9 28791.1 14289.9 28791.1 14304.7 28719.3 14304.7ZM28815.8 14286C28821.3 14289.3 28830.6 14292.2 28839.9 14292.2 28861.2 14292.2 28869 14278.8 28869 14266 28869 14238.4 28839.6 14238.4 28829.2 14238.4L28829.2 14225 28835 14225C28847 14224.7 28864.6 14218 28864.6 14200.6 28864.6 14188.4 28857 14179.9 28842.3 14179.9 28834.4 14179.9 28827.2 14182.8 28821 14186.6L28817.6 14173.9C28823.4 14169.8 28834.7 14165.5 28846.1 14165.5 28870.8 14165.5 28881.8 14181.1 28881.8 14197.8 28881.8 14211.7 28873.4 14224.5 28858.9 14229.7L28858.9 14230.1C28874.3 14234.1 28886.5 14246.1 28886.5 14266.1 28886.5 14286.1 28871.4 14306.8 28840.3 14306.8 28829 14306.8 28818 14303.6 28812.1 14299.9L28815.9 14286.2Z" fill="#FFFFFF" fill-rule="nonzero" fill-opacity="1" transform="matrix(1.00058 0 0 1 -9199.94 320.581)"/><path d="M35967 12188.9C35892.3 12188.9 35831.8 12128.4 35831.8 12053.7 35831.8 11979 35892.3 11918.5 35967 11918.5 36041.7 11918.5 36102.2 11979 36102.2 12053.7 36102.2 12128.4 36041.1 12188.9 35967 12188.9ZM35840.8 12053.7C35840.8 12123.5 35897.2 12179.9 35967 12179.9 36036.8 12179.9 36093.2 12123.5 36093.2 12053.7 36093.2 11983.9 36036.8 11927.5 35967 11927.5 35897.2 11927.5 35840.8 11984.6 35840.8 12053.7ZM35885.6 12122.4 35885.6 12110.7 35898.1 12095C35920.8 12066.9 35937.9 12045.6 35937.6 12022.7 35937.6 12008.7 35931.5 11998 35915.8 11998 35905.6 11998 35898 12002.9 35893.4 12006.1L35889.6 11993C35896 11988.1 35906.7 11983.2 35918.7 11983.2 35946.3 11983.2 35955 12003.9 35955 12021.3 35955 12048.9 35936.5 12071.1 35914.7 12096.3L35905.6 12107.1 35905.6 12107.7 35957.6 12107.7 35957.6 12122.5 35885.5 12122.5ZM36025.1 12123.8 36025.1 12086.9 35971 12086.9 35971 12074.9 36023.9 11983.7 36040.5 11983.7 36040.5 12072.9 36056.5 12072.9 36056.5 12086.9 36040.5 12086.9 36040.5 12123.8 36025.1 12123.8ZM36025.1 12072.9 36025.1 12025.8C36025.1 12018.2 36025.7 12009.8 36026.3 12002.9L36025.4 12002.9C36021.6 12011.3 36019 12017.1 36014.9 12023.8L35986.9 12072.7 35986.9 12073 36025.1 12073Z" fill="#FFFFFF" fill-rule="nonzero" fill-opacity="1" transform="matrix(1.00058 0 0 1 -9199.94 320.581)"/><path d="M135.211 12188.9C60.4975 12188.9 0 12128.4 0 12053.7 0 11979 60.4975 11918.5 135.211 11918.5 209.924 11918.5 270.421 11979 270.421 12053.7 270.421 12128.4 209.358 12188.9 135.211 12188.9ZM9.04635 12053.7C9.04635 12123.5 65.4245 12179.9 135.211 12179.9 204.997 12179.9 261.375 12123.5 261.375 12053.7 261.375 11983.9 204.997 11927.5 135.211 11927.5 65.4245 11927.5 9.04635 11984.6 9.04635 12053.7ZM78.5094 12000.2 78.1863 12000.2 55.4897 12012.4 52.0165 11999 79.9633 11983.6 95.6328 11983.6 95.6328 12123.7 78.5094 12123.7 78.5094 12000.1ZM181.735 12123.8 181.735 12086.9 122.126 12086.9 122.126 12075.3 182.058 11984 197.485 11984 197.485 12072.9 215.82 12072.9 215.82 12086.9 197.485 12086.9 197.485 12123.8 181.815 12123.8ZM181.735 12072.9 181.735 12023.5C181.735 12016.8 182.058 12010.4 182.623 12004L182.058 12004C178.262 12011.3 175.677 12016 172.204 12021.8L136.988 12072.4 136.988 12072.9 181.735 12072.9Z" fill="#FFFFFF" fill-rule="nonzero" fill-opacity="1" transform="matrix(1.00058 0 0 1 -9199.94 320.581)"/><path d="M35967 14371.3C35892.3 14371.3 35831.8 14310.8 35831.8 14236 35831.8 14161.3 35892.3 14100.8 35967 14100.8 36041.7 14100.8 36102.2 14161.3 36102.2 14236 36102.2 14310.8 36041.1 14371.3 35967 14371.3ZM35840.8 14236C35840.8 14305.8 35897.2 14362.2 35967 14362.2 36036.8 14362.2 36093.2 14305.8 36093.2 14236 36093.2 14166.3 36036.8 14109.9 35967 14109.9 35897.2 14109.9 35840.8 14166.8 35840.8 14236ZM35885.6 14304.7 35885.6 14293.1 35898.1 14277.4C35920.8 14249.2 35937.9 14228 35937.6 14205 35937.6 14191.1 35931.5 14180.3 35915.8 14180.3 35905.6 14180.3 35898 14185.2 35893.4 14188.5L35889.6 14175.4C35896 14170.5 35906.7 14165.5 35918.7 14165.5 35946.3 14165.5 35955 14186.2 35955 14203.6 35955 14231.2 35936.5 14253.3 35914.7 14278.6L35905.6 14289.4 35905.6 14289.9 35957.6 14289.9 35957.6 14304.7 35885.5 14304.7ZM36049 14182.3 36007.9 14182.3 36002.7 14218.3C36004.7 14218 36006.7 14218 36009.6 14218 36026.8 14218 36049.8 14230.5 36049.8 14259.6 36049.8 14286.6 36031.2 14306.6 36005 14306.6 35994.5 14306.6 35984.1 14303.4 35978.5 14299.9L35982.3 14286.3C35987.6 14288.9 35995.4 14291.8 36004.5 14291.8 36021 14291.8 36032.7 14280.5 36032.7 14262.4 36032.7 14237.1 36013.8 14231 35999.2 14231 35994 14231 35989.4 14231.3 35986.5 14231.8L35994.6 14167.3 36049 14167.3 36049 14182.2Z" fill="#FFFFFF" fill-rule="nonzero" fill-opacity="1" transform="matrix(1.00058 0 0 1 -9199.94 320.581)"/><path d="M43133.3 12188.9C43058.6 12188.9 42998.1 12128.4 42998.1 12053.7 42998.1 11979 43058.6 11918.5 43133.3 11918.5 43208 11918.5 43268.5 11979 43268.5 12053.7 43268.5 12128.4 43207.5 12188.9 43133.3 12188.9ZM43007.2 12053.7C43007.2 12123.5 43063.5 12179.9 43133.3 12179.9 43203.1 12179.9 43259.5 12123.5 43259.5 12053.7 43259.5 11983.9 43203.1 11927.5 43133.3 11927.5 43063.5 11927.5 43007.2 11984.6 43007.2 12053.7ZM43051.9 12122.4 43051.9 12110.7 43064.4 12095C43087.1 12066.9 43104.2 12045.6 43103.9 12022.7 43103.9 12008.7 43097.8 11998 43082.1 11998 43071.9 11998 43064.3 12002.9 43059.7 12006.1L43055.9 11993C43062.3 11988.1 43073.1 11983.2 43085 11983.2 43112.6 11983.2 43121.4 12003.9 43121.4 12021.3 43121.4 12048.9 43102.8 12071.1 43081 12096.3L43071.9 12107.1 43071.9 12107.7 43123.9 12107.7 43123.9 12122.5 43051.8 12122.5ZM43210.9 11998.2C43178.7 11998.2 43165.5 12021.1 43161.8 12048.5L43162.4 12048.5C43168.2 12040.9 43176.6 12035.8 43187.7 12035.8 43208 12035.8 43221.4 12053.5 43221.4 12076.8 43221.4 12100.1 43206.9 12124.5 43181.3 12124.5 43158.4 12124.5 43143.8 12103 43143.8 12068.1 43143.8 12028.3 43163 11983.2 43210.9 11983.2L43210.9 11998.3ZM43183.3 12048.5C43177.8 12048.5 43160.9 12050.9 43160.9 12072.1 43160.9 12097.4 43169.3 12111.7 43183.1 12111.7 43196.8 12111.7 43204.9 12098 43204.9 12078.6 43204.9 12059.1 43196.2 12048.6 43183.4 12048.6Z" fill="#FFFFFF" fill-rule="nonzero" fill-opacity="1" transform="matrix(1.00058 0 0 1 -9199.94 320.581)"/><path d="M43133.3 14371.3C43058.6 14371.3 42998.1 14310.8 42998.1 14236 42998.1 14161.3 43058.6 14100.8 43133.3 14100.8 43208 14100.8 43268.5 14161.3 43268.5 14236 43268.5 14310.8 43207.5 14371.3 43133.3 14371.3ZM43007.2 14236C43007.2 14305.8 43063.5 14362.2 43133.3 14362.2 43203.1 14362.2 43259.5 14305.8 43259.5 14236 43259.5 14166.3 43203.1 14109.9 43133.3 14109.9 43063.5 14109.9 43007.2 14166.8 43007.2 14236ZM43051.9 14304.7 43051.9 14293.1 43064.4 14277.4C43087.1 14249.2 43103.9 14228 43103.9 14205 43103.9 14191.1 43097.8 14180.3 43081.8 14180.3 43071.9 14180.3 43064.3 14185.2 43059.4 14188.5L43055.6 14175.4C43062.3 14170.5 43072.7 14165.5 43084.9 14165.5 43112.6 14165.5 43121 14186.2 43121 14203.6 43121 14231.2 43102.6 14253.3 43080.8 14278.6L43071.5 14289.4 43071.5 14289.9 43123.5 14289.9 43123.5 14304.7 43051.7 14304.7ZM43218.9 14167.5 43218.9 14179.1 43169.1 14306.2 43153.1 14306.2 43201.3 14182.9 43201.3 14182.3 43146.4 14182.3 43146.4 14167.5 43218.8 14167.5Z" fill="#FFFFFF" fill-rule="nonzero" fill-opacity="1" transform="matrix(1.00058 0 0 1 -9199.94 320.581)"/></g></g></g></g></g></svg>